<?xml version="1.0" encoding="utf-8"?>
<!-- Generator: Adobe Illustrator 24.2.3, SVG Export Plug-In . SVG Version: 6.00 Build 0)  -->
<svg version="1.1" id="圖層_1" xmlns="http://www.w3.org/2000/svg" xmlns:xlink="http://www.w3.org/1999/xlink" x="0px" y="0px"
	 viewBox="0 0 80 80" style="enable-background:new 0 0 80 80;" xml:space="preserve">
<style type="text/css">
	.st0{fill:#3A5B9F;}
	.st1{fill:#FEFEFE;}
</style>
<path class="st0" d="M40,0c10.93,0,21.85,0,32.78,0C77.18,0,80,2.82,80,7.22c0,21.85,0,43.71,0,65.56c0,4.4-2.82,7.22-7.22,7.22
	c-21.85,0-43.71,0-65.56,0C2.82,80,0,77.18,0,72.78C0,50.9,0,29.02,0,7.14c0-3.47,1.92-6.09,5.04-6.91C5.78,0.04,6.54,0,7.3,0
	C18.2,0,29.1,0,40,0z"/>
<path class="st1" d="M35.04,52.99c0-3.51-0.02-7.02,0.01-10.53c0.01-0.63-0.17-0.8-0.79-0.79c-2.19,0.04-4.38-0.01-6.57,0.03
	c-0.66,0.01-0.77-0.21-0.76-0.8c0.03-2.16,0.04-4.33,0-6.49c-0.01-0.64,0.12-0.85,0.81-0.84c2.19,0.05,4.38,0,6.57,0.03
	c0.58,0.01,0.75-0.12,0.76-0.73c0.01-2.51-0.11-5.01,0.1-7.52c0.45-5.3,4.31-9.13,9.61-9.52c2.53-0.19,5.07-0.05,7.6-0.11
	c0.49-0.01,0.56,0.19,0.56,0.61c-0.01,2.3-0.02,4.59,0.01,6.89c0.01,0.53-0.16,0.66-0.67,0.67c-1.66,0.02-3.33-0.15-4.98,0.17
	c-1.75,0.34-2.45,1.17-2.46,2.94c-0.02,1.98,0.01,3.96-0.02,5.94c-0.01,0.51,0.13,0.67,0.65,0.67c2.24-0.03,4.49,0.01,6.73-0.03
	c0.64-0.01,0.72,0.15,0.59,0.74c-0.48,2.21-0.92,4.44-1.32,6.67c-0.11,0.61-0.38,0.73-0.94,0.72c-1.61-0.03-3.22,0.04-4.83-0.03
	c-0.78-0.03-0.89,0.25-0.89,0.93c0.02,6.94,0.01,13.88,0.01,20.83c0,1.11,0.12,1-1.03,1c-2.67,0-5.33-0.02-8,0.01
	c-0.6,0.01-0.75-0.18-0.75-0.76C35.05,60.12,35.04,56.55,35.04,52.99z"/>
</svg>
